<svg width="1200" height="280" viewBox="0 0 1200 280" fill="none" xmlns="http://www.w3.org/2000/svg" role="img" aria-label="SkillParty Space Destroyer Pro">
  <defs>
    <linearGradient id="bgGrad" x1="0" y1="0" x2="1" y2="1">
      <stop offset="0%" stop-color="#040712"/>
      <stop offset="55%" stop-color="#0A1024"/>
      <stop offset="100%" stop-color="#111827"/>
    </linearGradient>
    <radialGradient id="nebulaA" cx="0" cy="0" r="1" gradientUnits="userSpaceOnUse" gradientTransform="translate(220 70) rotate(32) scale(280 100)">
      <stop offset="0%" stop-color="#38BDF8" stop-opacity="0.28"/>
      <stop offset="100%" stop-color="#38BDF8" stop-opacity="0"/>
    </radialGradient>
    <radialGradient id="nebulaB" cx="0" cy="0" r="1" gradientUnits="userSpaceOnUse" gradientTransform="translate(980 200) rotate(-12) scale(320 120)">
      <stop offset="0%" stop-color="#A78BFA" stop-opacity="0.24"/>
      <stop offset="100%" stop-color="#A78BFA" stop-opacity="0"/>
    </radialGradient>
    <linearGradient id="laserGrad" x1="0" y1="0" x2="1" y2="0">
      <stop offset="0%" stop-color="#22D3EE" stop-opacity="0"/>
      <stop offset="25%" stop-color="#67E8F9" stop-opacity="0.95"/>
      <stop offset="75%" stop-color="#A5F3FC" stop-opacity="0.95"/>
      <stop offset="100%" stop-color="#22D3EE" stop-opacity="0"/>
    </linearGradient>
    <filter id="glowSoft" x="-60%" y="-60%" width="220%" height="220%">
      <feGaussianBlur stdDeviation="2" result="b"/>
      <feMerge>
        <feMergeNode in="b"/>
        <feMergeNode in="SourceGraphic"/>
      </feMerge>
    </filter>
    <filter id="glowStrong" x="-100%" y="-100%" width="300%" height="300%">
      <feDropShadow dx="0" dy="0" stdDeviation="2" flood-color="#22D3EE" flood-opacity="0.9"/>
      <feDropShadow dx="0" dy="0" stdDeviation="6" flood-color="#38BDF8" flood-opacity="0.5"/>
      <feDropShadow dx="0" dy="0" stdDeviation="12" flood-color="#818CF8" flood-opacity="0.35"/>
    </filter>
    <pattern id="scan" width="4" height="4" patternUnits="userSpaceOnUse">
      <rect width="4" height="4" fill="transparent"/>
      <rect width="4" height="1" y="0" fill="#94A3B8" fill-opacity="0.06"/>
    </pattern>
  </defs>

  <rect width="1200" height="280" rx="18" fill="url(#bgGrad)"/>
  <rect width="1200" height="280" rx="18" fill="url(#nebulaA)"/>
  <rect width="1200" height="280" rx="18" fill="url(#nebulaB)"/>
  <rect width="1200" height="280" rx="18" fill="url(#scan)"/>

  <g fill="#BFDBFE" opacity="0.8">
    <circle cx="70" cy="36" r="1.3"><animate attributeName="opacity" values="0.2;1;0.2" dur="4.2s" repeatCount="indefinite"/></circle>
    <circle cx="142" cy="82" r="1.2"><animate attributeName="opacity" values="0.1;0.9;0.1" dur="6.5s" repeatCount="indefinite"/></circle>
    <circle cx="232" cy="41" r="1.1"><animate attributeName="opacity" values="0.2;1;0.2" dur="5.4s" repeatCount="indefinite"/></circle>
    <circle cx="344" cy="64" r="1.5"><animate attributeName="opacity" values="0.1;0.9;0.1" dur="7.2s" repeatCount="indefinite"/></circle>
    <circle cx="458" cy="34" r="1.1"><animate attributeName="opacity" values="0.2;1;0.2" dur="5.8s" repeatCount="indefinite"/></circle>
    <circle cx="600" cy="58" r="1.3"><animate attributeName="opacity" values="0.1;0.95;0.1" dur="6.9s" repeatCount="indefinite"/></circle>
    <circle cx="740" cy="44" r="1.2"><animate attributeName="opacity" values="0.2;1;0.2" dur="4.9s" repeatCount="indefinite"/></circle>
    <circle cx="860" cy="74" r="1.6"><animate attributeName="opacity" values="0.15;1;0.15" dur="7.8s" repeatCount="indefinite"/></circle>
    <circle cx="980" cy="36" r="1.2"><animate attributeName="opacity" values="0.2;0.9;0.2" dur="5.1s" repeatCount="indefinite"/></circle>
    <circle cx="1088" cy="65" r="1.4"><animate attributeName="opacity" values="0.15;1;0.15" dur="6.1s" repeatCount="indefinite"/></circle>
  </g>

  <g transform="translate(88,82)">
    <rect x="0" y="0" width="1024" height="130" rx="12" fill="#0B1226" stroke="#1E293B"/>

    <g id="blocks" fill="#1E293B">
      <rect x="20" y="18" width="22" height="22" rx="5"/>
      <rect x="48" y="18" width="22" height="22" rx="5"/>
      <rect x="76" y="18" width="22" height="22" rx="5"/>
      <rect x="104" y="18" width="22" height="22" rx="5"/>
      <rect x="132" y="18" width="22" height="22" rx="5"/>
      <rect x="160" y="18" width="22" height="22" rx="5"/>
      <rect x="188" y="18" width="22" height="22" rx="5"/>
      <rect x="216" y="18" width="22" height="22" rx="5"/>
      <rect x="244" y="18" width="22" height="22" rx="5"/>
      <rect x="272" y="18" width="22" height="22" rx="5"/>
      <rect x="300" y="18" width="22" height="22" rx="5"/>
      <rect x="328" y="18" width="22" height="22" rx="5"/>
      <rect x="356" y="18" width="22" height="22" rx="5"/>
      <rect x="384" y="18" width="22" height="22" rx="5"/>
      <rect x="412" y="18" width="22" height="22" rx="5"/>
      <rect x="440" y="18" width="22" height="22" rx="5"/>
      <rect x="468" y="18" width="22" height="22" rx="5"/>
      <rect x="496" y="18" width="22" height="22" rx="5"/>
      <rect x="524" y="18" width="22" height="22" rx="5"/>
      <rect x="552" y="18" width="22" height="22" rx="5"/>
      <rect x="580" y="18" width="22" height="22" rx="5"/>
      <rect x="608" y="18" width="22" height="22" rx="5"/>
      <rect x="636" y="18" width="22" height="22" rx="5"/>
      <rect x="664" y="18" width="22" height="22" rx="5"/>
      <rect x="692" y="18" width="22" height="22" rx="5"/>
      <rect x="720" y="18" width="22" height="22" rx="5"/>
      <rect x="748" y="18" width="22" height="22" rx="5"/>
      <rect x="776" y="18" width="22" height="22" rx="5"/>
      <rect x="804" y="18" width="22" height="22" rx="5"/>
      <rect x="832" y="18" width="22" height="22" rx="5"/>
      <rect x="860" y="18" width="22" height="22" rx="5"/>
      <rect x="888" y="18" width="22" height="22" rx="5"/>
      <rect x="916" y="18" width="22" height="22" rx="5"/>
      <rect x="944" y="18" width="22" height="22" rx="5"/>

      <rect x="20" y="46" width="22" height="22" rx="5"/>
      <rect x="48" y="46" width="22" height="22" rx="5"/>
      <rect x="76" y="46" width="22" height="22" rx="5"/>
      <rect x="104" y="46" width="22" height="22" rx="5"/>
      <rect x="132" y="46" width="22" height="22" rx="5"/>
      <rect x="160" y="46" width="22" height="22" rx="5"/>
      <rect x="188" y="46" width="22" height="22" rx="5"/>
      <rect x="216" y="46" width="22" height="22" rx="5"/>
      <rect x="244" y="46" width="22" height="22" rx="5"/>
      <rect x="272" y="46" width="22" height="22" rx="5"/>
      <rect x="300" y="46" width="22" height="22" rx="5"/>
      <rect x="328" y="46" width="22" height="22" rx="5"/>
      <rect x="356" y="46" width="22" height="22" rx="5"/>
      <rect x="384" y="46" width="22" height="22" rx="5"/>
      <rect x="412" y="46" width="22" height="22" rx="5"/>
      <rect x="440" y="46" width="22" height="22" rx="5"/>
      <rect x="468" y="46" width="22" height="22" rx="5"/>
      <rect x="496" y="46" width="22" height="22" rx="5"/>
      <rect x="524" y="46" width="22" height="22" rx="5"/>
      <rect x="552" y="46" width="22" height="22" rx="5"/>
      <rect x="580" y="46" width="22" height="22" rx="5"/>
      <rect x="608" y="46" width="22" height="22" rx="5"/>
      <rect x="636" y="46" width="22" height="22" rx="5"/>
      <rect x="664" y="46" width="22" height="22" rx="5"/>
      <rect x="692" y="46" width="22" height="22" rx="5"/>
      <rect x="720" y="46" width="22" height="22" rx="5"/>
      <rect x="748" y="46" width="22" height="22" rx="5"/>
      <rect x="776" y="46" width="22" height="22" rx="5"/>
      <rect x="804" y="46" width="22" height="22" rx="5"/>
      <rect x="832" y="46" width="22" height="22" rx="5"/>
      <rect x="860" y="46" width="22" height="22" rx="5"/>
      <rect x="888" y="46" width="22" height="22" rx="5"/>
      <rect x="916" y="46" width="22" height="22" rx="5"/>
      <rect x="944" y="46" width="22" height="22" rx="5"/>

      <rect x="20" y="74" width="22" height="22" rx="5"/>
      <rect x="48" y="74" width="22" height="22" rx="5"/>
      <rect x="76" y="74" width="22" height="22" rx="5"/>
      <rect x="104" y="74" width="22" height="22" rx="5"/>
      <rect x="132" y="74" width="22" height="22" rx="5"/>
      <rect x="160" y="74" width="22" height="22" rx="5"/>
      <rect x="188" y="74" width="22" height="22" rx="5"/>
      <rect x="216" y="74" width="22" height="22" rx="5"/>
      <rect x="244" y="74" width="22" height="22" rx="5"/>
      <rect x="272" y="74" width="22" height="22" rx="5"/>
      <rect x="300" y="74" width="22" height="22" rx="5"/>
      <rect x="328" y="74" width="22" height="22" rx="5"/>
      <rect x="356" y="74" width="22" height="22" rx="5"/>
      <rect x="384" y="74" width="22" height="22" rx="5"/>
      <rect x="412" y="74" width="22" height="22" rx="5"/>
      <rect x="440" y="74" width="22" height="22" rx="5"/>
      <rect x="468" y="74" width="22" height="22" rx="5"/>
      <rect x="496" y="74" width="22" height="22" rx="5"/>
      <rect x="524" y="74" width="22" height="22" rx="5"/>
      <rect x="552" y="74" width="22" height="22" rx="5"/>
      <rect x="580" y="74" width="22" height="22" rx="5"/>
      <rect x="608" y="74" width="22" height="22" rx="5"/>
      <rect x="636" y="74" width="22" height="22" rx="5"/>
      <rect x="664" y="74" width="22" height="22" rx="5"/>
      <rect x="692" y="74" width="22" height="22" rx="5"/>
      <rect x="720" y="74" width="22" height="22" rx="5"/>
      <rect x="748" y="74" width="22" height="22" rx="5"/>
      <rect x="776" y="74" width="22" height="22" rx="5"/>
      <rect x="804" y="74" width="22" height="22" rx="5"/>
      <rect x="832" y="74" width="22" height="22" rx="5"/>
      <rect x="860" y="74" width="22" height="22" rx="5"/>
      <rect x="888" y="74" width="22" height="22" rx="5"/>
      <rect x="916" y="74" width="22" height="22" rx="5"/>
      <rect x="944" y="74" width="22" height="22" rx="5"/>
    </g>

    <g fill="#22C55E" opacity="0.95">
      <rect x="132" y="74" width="22" height="22" rx="5"/>
      <rect x="216" y="46" width="22" height="22" rx="5"/>
      <rect x="328" y="18" width="22" height="22" rx="5"/>
      <rect x="468" y="74" width="22" height="22" rx="5"/>
      <rect x="580" y="46" width="22" height="22" rx="5"/>
      <rect x="692" y="18" width="22" height="22" rx="5"/>
      <rect x="804" y="46" width="22" height="22" rx="5"/>
      <rect x="916" y="74" width="22" height="22" rx="5"/>
    </g>

    <g filter="url(#glowSoft)">
      <g fill="#C084FC">
        <rect x="104" y="74" width="22" height="22" rx="5">
          <animate attributeName="opacity" values="1;1;0;0;1" keyTimes="0;0.10;0.18;0.7;1" dur="7s" repeatCount="indefinite"/>
        </rect>
        <rect x="272" y="46" width="22" height="22" rx="5">
          <animate attributeName="opacity" values="1;1;0;0;1" keyTimes="0;0.20;0.28;0.7;1" dur="7s" repeatCount="indefinite"/>
        </rect>
        <rect x="440" y="74" width="22" height="22" rx="5">
          <animate attributeName="opacity" values="1;1;0;0;1" keyTimes="0;0.32;0.40;0.7;1" dur="7s" repeatCount="indefinite"/>
        </rect>
        <rect x="636" y="46" width="22" height="22" rx="5">
          <animate attributeName="opacity" values="1;1;0;0;1" keyTimes="0;0.46;0.54;0.7;1" dur="7s" repeatCount="indefinite"/>
        </rect>
        <rect x="776" y="74" width="22" height="22" rx="5">
          <animate attributeName="opacity" values="1;1;0;0;1" keyTimes="0;0.58;0.66;0.74;1" dur="7s" repeatCount="indefinite"/>
        </rect>
        <rect x="944" y="46" width="22" height="22" rx="5">
          <animate attributeName="opacity" values="1;1;0;0;1" keyTimes="0;0.70;0.78;0.86;1" dur="7s" repeatCount="indefinite"/>
        </rect>
      </g>

      <g fill="#F59E0B" opacity="0.9">
        <circle cx="115" cy="85" r="0.8">
          <animate attributeName="r" values="0.8;6;0" dur="7s" begin="0s" repeatCount="indefinite"/>
          <animate attributeName="opacity" values="0;0.95;0" keyTimes="0;0.16;0.26" dur="7s" repeatCount="indefinite"/>
        </circle>
        <circle cx="283" cy="57" r="0.8">
          <animate attributeName="r" values="0.8;6;0" dur="7s" begin="0.8s" repeatCount="indefinite"/>
          <animate attributeName="opacity" values="0;0.95;0" keyTimes="0;0.16;0.26" dur="7s" begin="0.8s" repeatCount="indefinite"/>
        </circle>
        <circle cx="451" cy="85" r="0.8">
          <animate attributeName="r" values="0.8;6;0" dur="7s" begin="1.6s" repeatCount="indefinite"/>
          <animate attributeName="opacity" values="0;0.95;0" keyTimes="0;0.16;0.26" dur="7s" begin="1.6s" repeatCount="indefinite"/>
        </circle>
        <circle cx="647" cy="57" r="0.8">
          <animate attributeName="r" values="0.8;6;0" dur="7s" begin="2.4s" repeatCount="indefinite"/>
          <animate attributeName="opacity" values="0;0.95;0" keyTimes="0;0.16;0.26" dur="7s" begin="2.4s" repeatCount="indefinite"/>
        </circle>
        <circle cx="787" cy="85" r="0.8">
          <animate attributeName="r" values="0.8;6;0" dur="7s" begin="3.2s" repeatCount="indefinite"/>
          <animate attributeName="opacity" values="0;0.95;0" keyTimes="0;0.16;0.26" dur="7s" begin="3.2s" repeatCount="indefinite"/>
        </circle>
        <circle cx="955" cy="57" r="0.8">
          <animate attributeName="r" values="0.8;6;0" dur="7s" begin="4s" repeatCount="indefinite"/>
          <animate attributeName="opacity" values="0;0.95;0" keyTimes="0;0.16;0.26" dur="7s" begin="4s" repeatCount="indefinite"/>
        </circle>
      </g>
    </g>
  </g>

  <g filter="url(#glowStrong)">
    <g>
      <animateTransform attributeName="transform" type="translate" values="86 36; 1030 36; 86 36" dur="7s" repeatCount="indefinite"/>
      <path d="M0 18 L20 7 L64 7 L85 18 L64 29 L20 29 Z" fill="#E0F2FE"/>
      <rect x="18" y="12" width="46" height="12" rx="6" fill="#0284C7"/>
      <circle cx="30" cy="18" r="2" fill="#F8FAFC"/>
      <circle cx="52" cy="18" r="2" fill="#F8FAFC"/>
      <path d="M-11 18 L0 13 L0 23 Z" fill="#06B6D4"/>
      <path d="M85 18 L97 14 L97 22 Z" fill="#22D3EE"/>
      <ellipse cx="42" cy="18" rx="56" ry="24" fill="none" stroke="#67E8F9" stroke-opacity="0.55" stroke-width="1.2">
        <animate attributeName="rx" values="56;64;56" dur="1.6s" repeatCount="indefinite"/>
        <animate attributeName="opacity" values="0.5;0.9;0.5" dur="1.6s" repeatCount="indefinite"/>
      </ellipse>
    </g>
  </g>

  <g filter="url(#glowSoft)">
    <rect x="178" y="108" width="90" height="3.5" rx="2" fill="url(#laserGrad)">
      <animate attributeName="x" values="178;1030;178" dur="7s" repeatCount="indefinite"/>
      <animate attributeName="opacity" values="0;1;1;0" keyTimes="0;0.08;0.92;1" dur="7s" repeatCount="indefinite"/>
    </rect>
    <circle cx="266" cy="109.75" r="3.2" fill="#67E8F9">
      <animate attributeName="cx" values="266;1118;266" dur="7s" repeatCount="indefinite"/>
      <animate attributeName="opacity" values="0;1;1;0" keyTimes="0;0.08;0.92;1" dur="7s" repeatCount="indefinite"/>
      <animate attributeName="r" values="2;4.5;2" dur="0.4s" repeatCount="indefinite"/>
    </circle>
  </g>

  <g transform="translate(92,20)">
    <rect x="0" y="0" width="220" height="40" rx="10" fill="#0B1226" stroke="#1E293B"/>
    <text x="16" y="18" fill="#93C5FD" font-size="11" font-family="ui-monospace, SFMono-Regular, Menlo, Monaco, Consolas, monospace">MISSION</text>
    <text x="16" y="32" fill="#E2E8F0" font-size="13" font-weight="700" font-family="ui-monospace, SFMono-Regular, Menlo, Monaco, Consolas, monospace">PROFILE DEFENSE</text>

    <rect x="242" y="0" width="290" height="40" rx="10" fill="#0B1226" stroke="#1E293B"/>
    <text x="258" y="18" fill="#93C5FD" font-size="11" font-family="ui-monospace, SFMono-Regular, Menlo, Monaco, Consolas, monospace">COMBO</text>
    <text x="258" y="32" fill="#67E8F9" font-size="13" font-weight="700" font-family="ui-monospace, SFMono-Regular, Menlo, Monaco, Consolas, monospace">x42 STREAK</text>
    <rect x="360" y="26" width="150" height="6" rx="3" fill="#1E293B"/>
    <rect x="360" y="26" width="118" height="6" rx="3" fill="#22D3EE">
      <animate attributeName="width" values="70;132;102;118;86;118" dur="6s" repeatCount="indefinite"/>
    </rect>

    <rect x="554" y="0" width="260" height="40" rx="10" fill="#0B1226" stroke="#1E293B"/>
    <text x="570" y="18" fill="#93C5FD" font-size="11" font-family="ui-monospace, SFMono-Regular, Menlo, Monaco, Consolas, monospace">SYSTEM</text>
    <text x="570" y="32" fill="#A78BFA" font-size="13" font-weight="700" font-family="ui-monospace, SFMono-Regular, Menlo, Monaco, Consolas, monospace">TURBO CANNON ONLINE</text>
  </g>

  <text x="600" y="258" text-anchor="middle" fill="#93C5FD" font-size="14" font-family="ui-monospace, SFMono-Regular, Menlo, Monaco, Consolas, monospace" opacity="0.9">
    SKILLPARTY // SPACE DESTROYER PRO MODE
  </text>
</svg>
