<svg width="1200" height="240" viewBox="0 0 1200 240" fill="none" xmlns="http://www.w3.org/2000/svg">
  <defs>
    <linearGradient id="bg" x1="0" y1="0" x2="1" y2="1">
      <stop offset="0%" stop-color="#050816"/>
      <stop offset="100%" stop-color="#0B1026"/>
    </linearGradient>
    <linearGradient id="laser" x1="0" y1="0" x2="1" y2="0">
      <stop offset="0%" stop-color="#67E8F9" stop-opacity="0"/>
      <stop offset="35%" stop-color="#22D3EE" stop-opacity="0.95"/>
      <stop offset="100%" stop-color="#A5F3FC" stop-opacity="0"/>
    </linearGradient>
    <filter id="glow" x="-50%" y="-50%" width="200%" height="200%">
      <feGaussianBlur stdDeviation="2" result="blur"/>
      <feMerge>
        <feMergeNode in="blur"/>
        <feMergeNode in="SourceGraphic"/>
      </feMerge>
    </filter>
    <filter id="shipGlow" x="-80%" y="-80%" width="260%" height="260%">
      <feDropShadow dx="0" dy="0" stdDeviation="2" flood-color="#22D3EE" flood-opacity="0.8"/>
      <feDropShadow dx="0" dy="0" stdDeviation="6" flood-color="#38BDF8" flood-opacity="0.4"/>
    </filter>
  </defs>

  <rect width="1200" height="240" rx="16" fill="url(#bg)"/>

  <g opacity="0.5" fill="#93C5FD">
    <circle cx="70" cy="32" r="1.2"><animate attributeName="opacity" values="0.2;1;0.2" dur="4s" repeatCount="indefinite"/></circle>
    <circle cx="180" cy="65" r="1.4"><animate attributeName="opacity" values="0.15;0.9;0.15" dur="5.5s" repeatCount="indefinite"/></circle>
    <circle cx="320" cy="28" r="1.3"><animate attributeName="opacity" values="0.2;1;0.2" dur="6s" repeatCount="indefinite"/></circle>
    <circle cx="460" cy="56" r="1.1"><animate attributeName="opacity" values="0.1;0.8;0.1" dur="4.5s" repeatCount="indefinite"/></circle>
    <circle cx="610" cy="35" r="1.2"><animate attributeName="opacity" values="0.2;0.9;0.2" dur="6.4s" repeatCount="indefinite"/></circle>
    <circle cx="760" cy="44" r="1.4"><animate attributeName="opacity" values="0.2;1;0.2" dur="5.2s" repeatCount="indefinite"/></circle>
    <circle cx="930" cy="30" r="1.2"><animate attributeName="opacity" values="0.1;0.9;0.1" dur="7s" repeatCount="indefinite"/></circle>
    <circle cx="1060" cy="62" r="1.3"><animate attributeName="opacity" values="0.2;1;0.2" dur="5.8s" repeatCount="indefinite"/></circle>
  </g>

  <g transform="translate(90,72)">
    <rect x="0" y="0" width="1012" height="130" rx="10" fill="#0F172A" stroke="#1E293B"/>

    <g fill="#1E293B">
      <rect x="20" y="20" width="18" height="18" rx="4"/>
      <rect x="44" y="20" width="18" height="18" rx="4"/>
      <rect x="68" y="20" width="18" height="18" rx="4"/>
      <rect x="92" y="20" width="18" height="18" rx="4"/>
      <rect x="116" y="20" width="18" height="18" rx="4"/>
      <rect x="140" y="20" width="18" height="18" rx="4"/>
      <rect x="164" y="20" width="18" height="18" rx="4"/>
      <rect x="188" y="20" width="18" height="18" rx="4"/>
      <rect x="212" y="20" width="18" height="18" rx="4"/>
      <rect x="236" y="20" width="18" height="18" rx="4"/>
      <rect x="260" y="20" width="18" height="18" rx="4"/>
      <rect x="284" y="20" width="18" height="18" rx="4"/>
      <rect x="308" y="20" width="18" height="18" rx="4"/>
      <rect x="332" y="20" width="18" height="18" rx="4"/>
      <rect x="356" y="20" width="18" height="18" rx="4"/>
      <rect x="380" y="20" width="18" height="18" rx="4"/>
      <rect x="404" y="20" width="18" height="18" rx="4"/>
      <rect x="428" y="20" width="18" height="18" rx="4"/>
      <rect x="452" y="20" width="18" height="18" rx="4"/>
      <rect x="476" y="20" width="18" height="18" rx="4"/>
      <rect x="500" y="20" width="18" height="18" rx="4"/>
      <rect x="524" y="20" width="18" height="18" rx="4"/>
      <rect x="548" y="20" width="18" height="18" rx="4"/>
      <rect x="572" y="20" width="18" height="18" rx="4"/>
      <rect x="596" y="20" width="18" height="18" rx="4"/>
      <rect x="620" y="20" width="18" height="18" rx="4"/>
      <rect x="644" y="20" width="18" height="18" rx="4"/>
      <rect x="668" y="20" width="18" height="18" rx="4"/>
      <rect x="692" y="20" width="18" height="18" rx="4"/>
      <rect x="716" y="20" width="18" height="18" rx="4"/>
      <rect x="740" y="20" width="18" height="18" rx="4"/>
      <rect x="764" y="20" width="18" height="18" rx="4"/>
      <rect x="788" y="20" width="18" height="18" rx="4"/>
      <rect x="812" y="20" width="18" height="18" rx="4"/>
      <rect x="836" y="20" width="18" height="18" rx="4"/>
      <rect x="860" y="20" width="18" height="18" rx="4"/>
      <rect x="884" y="20" width="18" height="18" rx="4"/>
      <rect x="908" y="20" width="18" height="18" rx="4"/>
      <rect x="932" y="20" width="18" height="18" rx="4"/>

      <rect x="20" y="44" width="18" height="18" rx="4"/>
      <rect x="44" y="44" width="18" height="18" rx="4"/>
      <rect x="68" y="44" width="18" height="18" rx="4"/>
      <rect x="92" y="44" width="18" height="18" rx="4"/>
      <rect x="116" y="44" width="18" height="18" rx="4"/>
      <rect x="140" y="44" width="18" height="18" rx="4"/>
      <rect x="164" y="44" width="18" height="18" rx="4"/>
      <rect x="188" y="44" width="18" height="18" rx="4"/>
      <rect x="212" y="44" width="18" height="18" rx="4"/>
      <rect x="236" y="44" width="18" height="18" rx="4"/>
      <rect x="260" y="44" width="18" height="18" rx="4"/>
      <rect x="284" y="44" width="18" height="18" rx="4"/>
      <rect x="308" y="44" width="18" height="18" rx="4"/>
      <rect x="332" y="44" width="18" height="18" rx="4"/>
      <rect x="356" y="44" width="18" height="18" rx="4"/>
      <rect x="380" y="44" width="18" height="18" rx="4"/>
      <rect x="404" y="44" width="18" height="18" rx="4"/>
      <rect x="428" y="44" width="18" height="18" rx="4"/>
      <rect x="452" y="44" width="18" height="18" rx="4"/>
      <rect x="476" y="44" width="18" height="18" rx="4"/>
      <rect x="500" y="44" width="18" height="18" rx="4"/>
      <rect x="524" y="44" width="18" height="18" rx="4"/>
      <rect x="548" y="44" width="18" height="18" rx="4"/>
      <rect x="572" y="44" width="18" height="18" rx="4"/>
      <rect x="596" y="44" width="18" height="18" rx="4"/>
      <rect x="620" y="44" width="18" height="18" rx="4"/>
      <rect x="644" y="44" width="18" height="18" rx="4"/>
      <rect x="668" y="44" width="18" height="18" rx="4"/>
      <rect x="692" y="44" width="18" height="18" rx="4"/>
      <rect x="716" y="44" width="18" height="18" rx="4"/>
      <rect x="740" y="44" width="18" height="18" rx="4"/>
      <rect x="764" y="44" width="18" height="18" rx="4"/>
      <rect x="788" y="44" width="18" height="18" rx="4"/>
      <rect x="812" y="44" width="18" height="18" rx="4"/>
      <rect x="836" y="44" width="18" height="18" rx="4"/>
      <rect x="860" y="44" width="18" height="18" rx="4"/>
      <rect x="884" y="44" width="18" height="18" rx="4"/>
      <rect x="908" y="44" width="18" height="18" rx="4"/>
      <rect x="932" y="44" width="18" height="18" rx="4"/>

      <rect x="20" y="68" width="18" height="18" rx="4"/>
      <rect x="44" y="68" width="18" height="18" rx="4"/>
      <rect x="68" y="68" width="18" height="18" rx="4"/>
      <rect x="92" y="68" width="18" height="18" rx="4"/>
      <rect x="116" y="68" width="18" height="18" rx="4"/>
      <rect x="140" y="68" width="18" height="18" rx="4"/>
      <rect x="164" y="68" width="18" height="18" rx="4"/>
      <rect x="188" y="68" width="18" height="18" rx="4"/>
      <rect x="212" y="68" width="18" height="18" rx="4"/>
      <rect x="236" y="68" width="18" height="18" rx="4"/>
      <rect x="260" y="68" width="18" height="18" rx="4"/>
      <rect x="284" y="68" width="18" height="18" rx="4"/>
      <rect x="308" y="68" width="18" height="18" rx="4"/>
      <rect x="332" y="68" width="18" height="18" rx="4"/>
      <rect x="356" y="68" width="18" height="18" rx="4"/>
      <rect x="380" y="68" width="18" height="18" rx="4"/>
      <rect x="404" y="68" width="18" height="18" rx="4"/>
      <rect x="428" y="68" width="18" height="18" rx="4"/>
      <rect x="452" y="68" width="18" height="18" rx="4"/>
      <rect x="476" y="68" width="18" height="18" rx="4"/>
      <rect x="500" y="68" width="18" height="18" rx="4"/>
      <rect x="524" y="68" width="18" height="18" rx="4"/>
      <rect x="548" y="68" width="18" height="18" rx="4"/>
      <rect x="572" y="68" width="18" height="18" rx="4"/>
      <rect x="596" y="68" width="18" height="18" rx="4"/>
      <rect x="620" y="68" width="18" height="18" rx="4"/>
      <rect x="644" y="68" width="18" height="18" rx="4"/>
      <rect x="668" y="68" width="18" height="18" rx="4"/>
      <rect x="692" y="68" width="18" height="18" rx="4"/>
      <rect x="716" y="68" width="18" height="18" rx="4"/>
      <rect x="740" y="68" width="18" height="18" rx="4"/>
      <rect x="764" y="68" width="18" height="18" rx="4"/>
      <rect x="788" y="68" width="18" height="18" rx="4"/>
      <rect x="812" y="68" width="18" height="18" rx="4"/>
      <rect x="836" y="68" width="18" height="18" rx="4"/>
      <rect x="860" y="68" width="18" height="18" rx="4"/>
      <rect x="884" y="68" width="18" height="18" rx="4"/>
      <rect x="908" y="68" width="18" height="18" rx="4"/>
      <rect x="932" y="68" width="18" height="18" rx="4"/>
    </g>

    <g fill="#22C55E">
      <rect x="164" y="68" width="18" height="18" rx="4"/>
      <rect x="212" y="44" width="18" height="18" rx="4"/>
      <rect x="284" y="20" width="18" height="18" rx="4"/>
      <rect x="332" y="68" width="18" height="18" rx="4"/>
      <rect x="404" y="44" width="18" height="18" rx="4"/>
      <rect x="500" y="20" width="18" height="18" rx="4"/>
      <rect x="548" y="68" width="18" height="18" rx="4"/>
      <rect x="620" y="44" width="18" height="18" rx="4"/>
      <rect x="716" y="20" width="18" height="18" rx="4"/>
      <rect x="788" y="44" width="18" height="18" rx="4"/>
      <rect x="860" y="68" width="18" height="18" rx="4"/>
      <rect x="932" y="20" width="18" height="18" rx="4"/>
    </g>

    <g fill="#A78BFA" filter="url(#glow)">
      <rect x="116" y="68" width="18" height="18" rx="4">
        <animate attributeName="opacity" values="1;1;0;0;1" keyTimes="0;0.10;0.18;0.7;1" dur="6s" repeatCount="indefinite"/>
      </rect>
      <rect x="260" y="44" width="18" height="18" rx="4">
        <animate attributeName="opacity" values="1;1;0;0;1" keyTimes="0;0.18;0.26;0.7;1" dur="6s" repeatCount="indefinite"/>
      </rect>
      <rect x="452" y="68" width="18" height="18" rx="4">
        <animate attributeName="opacity" values="1;1;0;0;1" keyTimes="0;0.30;0.38;0.7;1" dur="6s" repeatCount="indefinite"/>
      </rect>
      <rect x="596" y="44" width="18" height="18" rx="4">
        <animate attributeName="opacity" values="1;1;0;0;1" keyTimes="0;0.42;0.50;0.7;1" dur="6s" repeatCount="indefinite"/>
      </rect>
      <rect x="740" y="68" width="18" height="18" rx="4">
        <animate attributeName="opacity" values="1;1;0;0;1" keyTimes="0;0.54;0.62;0.7;1" dur="6s" repeatCount="indefinite"/>
      </rect>
      <rect x="908" y="44" width="18" height="18" rx="4">
        <animate attributeName="opacity" values="1;1;0;0;1" keyTimes="0;0.66;0.74;0.82;1" dur="6s" repeatCount="indefinite"/>
      </rect>
    </g>
  </g>

  <g filter="url(#shipGlow)">
    <g>
      <animateTransform attributeName="transform" type="translate" values="96 26; 1040 26; 96 26" dur="6s" repeatCount="indefinite"/>
      <polygon points="0,15 22,4 62,4 82,15 62,26 22,26" fill="#CFFAFE" opacity="0.95"/>
      <rect x="20" y="10" width="40" height="10" rx="5" fill="#0EA5E9"/>
      <circle cx="30" cy="15" r="2" fill="#F8FAFC"/>
      <circle cx="52" cy="15" r="2" fill="#F8FAFC"/>
      <polygon points="-10,15 0,11 0,19" fill="#22D3EE"/>
      <polygon points="82,15 94,12 94,18" fill="#22D3EE"/>
    </g>
  </g>

  <g filter="url(#glow)">
    <rect x="172" y="97" width="86" height="3" rx="2" fill="url(#laser)">
      <animate attributeName="x" values="172;1018;172" dur="6s" repeatCount="indefinite"/>
      <animate attributeName="opacity" values="0;1;1;0" keyTimes="0;0.08;0.92;1" dur="6s" repeatCount="indefinite"/>
    </rect>
    <circle cx="258" cy="98.5" r="4" fill="#67E8F9">
      <animate attributeName="cx" values="258;1104;258" dur="6s" repeatCount="indefinite"/>
      <animate attributeName="opacity" values="0;1;1;0" keyTimes="0;0.08;0.92;1" dur="6s" repeatCount="indefinite"/>
      <animate attributeName="r" values="2;5;2" dur="0.35s" repeatCount="indefinite"/>
    </circle>
  </g>

  <text x="600" y="220" text-anchor="middle" fill="#93C5FD" font-size="14" font-family="ui-monospace, SFMono-Regular, Menlo, Monaco, Consolas, monospace" opacity="0.85">
    SKILLPARTY // SPACE DESTROYER MODE
  </text>
</svg>
